<mxfile host="app.diagrams.net" modified="2023-07-31T02:51:41.568Z" agent="Mozilla/5.0 (Windows NT 10.0; Win64; x64) AppleWebKit/537.36 (KHTML, like Gecko) Chrome/112.0.0.0 Safari/537.36" etag="JLAXULDSyJHJPto1HUeC" version="21.6.5" type="github">
  <diagram name="Page-1" id="55a83fd1-7818-8e21-69c5-c3457e3827bb">
    <mxGraphModel dx="598" dy="318" grid="0" gridSize="10" guides="1" tooltips="1" connect="1" arrows="1" fold="1" page="1" pageScale="1" pageWidth="1100" pageHeight="850" background="none" math="0" shadow="0">
      <root>
        <mxCell id="0" />
        <mxCell id="1" parent="0" />
        <mxCell id="8FrTbTZE2b99i6v4mtXq-2" value="Conv 3x3，stride=1" style="rounded=1;whiteSpace=wrap;html=1;" vertex="1" parent="1">
          <mxGeometry x="490" y="230" width="120" height="20" as="geometry" />
        </mxCell>
        <mxCell id="8FrTbTZE2b99i6v4mtXq-6" value="Batch norm" style="rounded=1;whiteSpace=wrap;html=1;" vertex="1" parent="1">
          <mxGeometry x="490" y="250" width="120" height="20" as="geometry" />
        </mxCell>
        <mxCell id="8FrTbTZE2b99i6v4mtXq-7" value="Relu" style="rounded=1;whiteSpace=wrap;html=1;" vertex="1" parent="1">
          <mxGeometry x="490" y="270" width="120" height="20" as="geometry" />
        </mxCell>
        <mxCell id="8FrTbTZE2b99i6v4mtXq-8" value="Conv 3x3，stride=2" style="rounded=1;whiteSpace=wrap;html=1;" vertex="1" parent="1">
          <mxGeometry x="490" y="310" width="120" height="20" as="geometry" />
        </mxCell>
        <mxCell id="8FrTbTZE2b99i6v4mtXq-9" value="Batch norm" style="rounded=1;whiteSpace=wrap;html=1;" vertex="1" parent="1">
          <mxGeometry x="490" y="330" width="120" height="20" as="geometry" />
        </mxCell>
        <mxCell id="8FrTbTZE2b99i6v4mtXq-10" value="Relu" style="rounded=1;whiteSpace=wrap;html=1;" vertex="1" parent="1">
          <mxGeometry x="490" y="350" width="120" height="20" as="geometry" />
        </mxCell>
        <mxCell id="8FrTbTZE2b99i6v4mtXq-13" value="" style="endArrow=none;html=1;rounded=0;exitX=0.5;exitY=0;exitDx=0;exitDy=0;entryX=0.5;entryY=1;entryDx=0;entryDy=0;" edge="1" parent="1" source="8FrTbTZE2b99i6v4mtXq-8" target="8FrTbTZE2b99i6v4mtXq-7">
          <mxGeometry width="50" height="50" relative="1" as="geometry">
            <mxPoint x="520" y="280" as="sourcePoint" />
            <mxPoint x="570" y="230" as="targetPoint" />
          </mxGeometry>
        </mxCell>
        <mxCell id="8FrTbTZE2b99i6v4mtXq-15" value="" style="endArrow=classic;html=1;rounded=0;exitX=0.5;exitY=1;exitDx=0;exitDy=0;entryX=0.5;entryY=0;entryDx=0;entryDy=0;" edge="1" parent="1" source="8FrTbTZE2b99i6v4mtXq-10" target="8FrTbTZE2b99i6v4mtXq-17">
          <mxGeometry width="50" height="50" relative="1" as="geometry">
            <mxPoint x="320" y="330" as="sourcePoint" />
            <mxPoint x="550" y="400" as="targetPoint" />
          </mxGeometry>
        </mxCell>
        <mxCell id="8FrTbTZE2b99i6v4mtXq-17" value="output" style="rounded=1;whiteSpace=wrap;html=1;" vertex="1" parent="1">
          <mxGeometry x="519" y="392" width="62" height="20" as="geometry" />
        </mxCell>
        <mxCell id="8FrTbTZE2b99i6v4mtXq-22" style="edgeStyle=orthogonalEdgeStyle;rounded=0;orthogonalLoop=1;jettySize=auto;html=1;exitX=0.5;exitY=1;exitDx=0;exitDy=0;entryX=0.5;entryY=0;entryDx=0;entryDy=0;" edge="1" parent="1" source="8FrTbTZE2b99i6v4mtXq-18" target="8FrTbTZE2b99i6v4mtXq-2">
          <mxGeometry relative="1" as="geometry" />
        </mxCell>
        <mxCell id="8FrTbTZE2b99i6v4mtXq-18" value="input" style="rounded=1;whiteSpace=wrap;html=1;" vertex="1" parent="1">
          <mxGeometry x="519" y="191" width="62" height="20" as="geometry" />
        </mxCell>
      </root>
    </mxGraphModel>
  </diagram>
</mxfile>
